<svg width="2000" height="2000" viewBox="0 0 2000 2000" fill="none" xmlns="http://www.w3.org/2000/svg">
<rect width="2000" height="2000" fill="white"/>
<g clip-path="url(#clip0_90_2360)">
<path d="M786.242 1236.63C786.242 1236.63 663.819 613.585 954.875 493.151C1245.93 372.717 1147.7 236.403 1315.76 252.253C1483.81 268.104 1578.95 480.795 1604.32 678.77C1629.69 876.746 1727.45 1342.65 1564.95 1395.79C1369.12 1459.82 1342.53 1660.08 1172.95 1650.69C844.223 1632.63 786.242 1236.63 786.242 1236.63Z" fill="#F5F5FE"/>
<path d="M770.401 1126.46L1640.74 1119.09C1640.74 1119.09 1344.92 1130.35 1342.04 1226.33C1339.16 1322.3 1304.61 1404.74 1175.06 1414.59C1045.51 1424.43 957.988 1266.4 792.142 1267.3C680.457 1267.88 770.401 1126.46 770.401 1126.46Z" fill="#ECECFE"/>
<path d="M770.401 1126.46L1640.74 1119.09C1640.74 1119.09 1482.78 936.624 1351.32 973.972C1258.39 1000.35 1304.61 832.085 1175.06 822.103C1045.51 812.121 1162.73 916.468 996.883 915.628C885.198 915.038 770.401 1126.46 770.401 1126.46Z" fill="url(#paint0_linear_90_2360)"/>
<path d="M1162.27 1220.96H1255.56C1255.56 1220.96 1246.49 1187.28 1218 1188.52C1189.5 1189.76 1189.48 1204.74 1189.48 1204.74C1189.48 1204.74 1158.39 1202.82 1162.27 1220.96ZM1241.31 1178.21H1376.07C1376.07 1178.21 1373.47 1156.19 1357.93 1156.19C1342.38 1156.19 1343.68 1104.39 1308.69 1103.11C1273.71 1101.82 1251.68 1118.63 1241.31 1178.21Z" fill="#CACAFB"/>
<path d="M943.356 760.175L949.919 770.128L914.019 1126.55H1118.8L1078.91 769.42L1085.72 760.175H943.356Z" fill="#E3E3FD"/>
<path d="M1084.73 821.646H944.462L945.436 811.988H1083.65L1084.73 821.646Z" fill="#CACAFB"/>
<path d="M1443.13 449.064H1582.37C1604.75 449.064 1617.51 422.878 1603.11 405.745C1594.7 395.733 1579.33 388.243 1551.81 389.319C1551.81 389.319 1513.37 316.333 1459.49 389.216C1459.49 389.216 1415.24 384.793 1411.78 413.22C1411.78 413.5 1411.78 413.795 1411.67 414.061C1411.2 418.474 1411.66 422.939 1413.02 427.163C1414.38 431.388 1416.62 435.278 1419.59 438.58C1422.56 441.882 1426.19 444.522 1430.25 446.329C1434.3 448.135 1438.69 449.067 1443.13 449.064ZM802.791 626.147H961.631C987.148 626.147 1001.71 596.26 985.23 576.723C975.628 565.311 958.106 556.759 926.703 557.997C926.703 557.997 882.853 474.72 821.391 557.879C821.391 557.879 770.829 552.881 766.964 585.26C766.964 585.585 766.876 585.894 766.846 586.219C766.301 591.258 766.824 596.356 768.383 601.18C769.942 606.003 772.501 610.444 775.894 614.212C779.286 617.98 783.434 620.99 788.069 623.047C792.704 625.103 797.72 626.16 802.791 626.147Z" fill="#ECECFE"/>
<path d="M960.702 735.699L961.469 688.399H1071.35V733.827L960.702 735.699Z" fill="#E3E3FD"/>
<path d="M1095.65 925.3H935.686L936.866 915.642H1094.41L1095.65 925.3ZM1109.16 1040.25H922.633L923.606 1030.59H1108.08L1109.16 1040.25ZM943.356 760.175L942.323 744.413L933.459 736.112V730.096H1099.44V736.186L1089.94 742.806L1085.72 760.175H943.356Z" fill="#CACAFB"/>
<path d="M1009.8 720.453H1023.17V708.437C1023.17 708.437 1017.16 698.425 1009.8 708.437V720.453Z" fill="white"/>
<path d="M934.934 714.777H954.89V732.795H934.934V714.777ZM955.583 714.777H975.54V732.795H955.583V714.777ZM976.233 714.777H996.189V732.795H976.233V714.777ZM996.882 714.777H1016.84V732.795H996.882V714.777Z" stroke="#CACAFB" stroke-width="2" stroke-miterlimit="10"/>
<path d="M1016.06 714.777H1036.01V732.795H1016.06V714.777ZM1036.71 714.777H1056.66V732.795H1036.71V714.777ZM1057.36 714.777H1077.31V732.795H1057.36V714.777ZM1078.01 714.777H1097.96V732.795H1078.01V714.777Z" stroke="#CACAFB" stroke-width="2" stroke-miterlimit="10"/>
<path d="M960.008 688.266L954.875 686.791C953.4 686.187 951.719 683.843 952.855 682.796L1006.84 631.529C1007.21 631.178 1007.45 630.705 1007.51 630.195C1007.57 629.685 1007.45 629.17 1007.16 628.742C1005.94 627.002 1004.85 624.053 1009.92 622.638C1017.4 620.544 1013.39 608.586 1014.91 608.586C1016.43 608.586 1014.42 618.155 1017.4 620.544C1020.38 622.933 1026.65 623.685 1022.89 628.963C1022.58 629.392 1022.45 629.916 1022.51 630.437C1022.56 630.958 1022.81 631.441 1023.2 631.794L1077.12 681.926C1077.37 682.161 1077.56 682.452 1077.68 682.774C1077.8 683.097 1077.84 683.443 1077.8 683.785C1077.76 684.126 1077.64 684.453 1077.45 684.74C1077.26 685.026 1077.01 685.264 1076.71 685.435L1071.86 688.177C1071.53 688.359 1071.16 688.456 1070.78 688.458H961.468C960.973 688.518 960.471 688.452 960.008 688.266Z" fill="#CACAFB"/>
<path d="M1602.02 1179.7L1601.9 871.748C1601.9 871.748 1453.83 860.041 1475.72 767.326C1490.13 706.269 1538.86 701.462 1537.67 669.275C1536.82 646.008 1557.98 550.787 1621.89 602.674C1672.37 643.649 1648.66 677.458 1674.73 682.294C1701.45 687.219 1734.03 732.116 1715.92 758.45C1697.8 784.784 1717.97 785.772 1717.97 798.939C1717.97 812.106 1728.67 850.383 1674.34 860.262C1620 870.141 1609.44 873.296 1609.44 873.296L1614.01 1179.75L1602.02 1179.7Z" fill="#CACAFB"/>
<path d="M1519.64 1182.36L1519.79 921.702C1519.79 921.702 1625 911.794 1609.45 833.309C1599.22 781.599 1564.58 777.544 1565.42 750.282C1566.03 730.583 1551 650.018 1505.59 693.898C1469.7 728.592 1486.56 757.212 1468.03 761.266C1449.05 765.439 1425.91 803.451 1438.77 825.745C1451.63 848.038 1437.29 848.879 1437.29 860.026C1437.29 871.173 1429.68 903.581 1468.27 911.956C1506.85 920.331 1514.36 922.985 1514.36 922.985L1511.41 1182.49L1519.64 1182.36Z" fill="#C1C1F5"/>
<path d="M1554.7 1191.2V1036.22C1554.7 1036.22 1503.65 1030.33 1511.2 983.556C1516.16 952.755 1532.96 950.337 1532.56 934.088C1532.27 922.292 1539.55 874.328 1561.59 900.5C1578.99 921.142 1570.82 938.216 1579.81 940.635C1589.02 943.126 1600.25 965.774 1594.01 979.059C1587.77 992.344 1594.72 992.83 1594.72 999.48C1594.72 1006.13 1598.4 1025.43 1579.67 1030.44C1560.94 1035.46 1560.41 1035.5 1560.41 1035.5L1560.72 1190.81L1554.7 1191.2Z" fill="#CACAFB"/>
<path d="M914.019 1126.55L1241.31 1178.21L1118.8 1126.55" fill="url(#paint1_linear_90_2360)"/>
</g>
<g clip-path="url(#clip1_90_2360)">
<path d="M506.887 1355.66L621.727 1479.05C628.187 1484.08 633.413 1490.51 637.008 1497.85C640.602 1505.2 642.471 1513.26 642.471 1521.43V1651.22C642.471 1659.11 639.323 1666.69 633.72 1672.27C628.116 1677.85 620.516 1680.99 612.592 1680.99H463.214" stroke="#BFBFFF" stroke-width="6" stroke-miterlimit="10" stroke-linecap="round"/>
<path d="M642.166 1336.08C642.166 1341.27 640.095 1346.25 636.41 1349.93C632.724 1353.6 627.725 1355.66 622.513 1355.66H338.745C323.479 1355.66 308.84 1349.62 298.045 1338.86C287.251 1328.1 281.186 1313.52 281.184 1298.3V1073.89C281.183 1068.74 282.199 1063.65 284.174 1058.9C286.15 1054.15 289.046 1049.84 292.696 1046.2C296.347 1042.57 300.68 1039.69 305.449 1037.72C310.219 1035.76 315.329 1034.75 320.49 1034.76H466.191C469.712 1034.75 473.198 1035.45 476.451 1036.79C479.704 1038.13 482.66 1040.1 485.15 1042.58C487.639 1045.06 489.614 1048 490.961 1051.25C492.308 1054.49 493 1057.96 492.999 1061.47V1259.14C492.999 1274.35 499.063 1288.94 509.857 1299.7C520.65 1310.45 535.289 1316.49 550.554 1316.49H622.513C627.725 1316.49 632.724 1318.56 636.41 1322.23C640.095 1325.9 642.166 1330.88 642.166 1336.08Z" fill="white" stroke="#BFBFFF" stroke-width="6" stroke-miterlimit="10" stroke-linecap="round"/>
<path d="M641.387 1341.55C640.199 1345.62 637.716 1349.2 634.312 1351.74C630.909 1354.29 626.768 1355.66 622.513 1355.66H338.745C323.479 1355.66 308.84 1349.62 298.045 1338.86C287.251 1328.1 281.186 1313.52 281.184 1298.3V1073.89C281.185 1066.66 283.193 1059.57 286.986 1053.41C290.778 1047.25 296.207 1042.26 302.671 1038.98C298.61 1045.28 296.457 1052.62 296.469 1060.11V1293.31C296.469 1306.19 301.607 1318.56 310.753 1327.67C319.899 1336.78 332.304 1341.9 345.238 1341.9H637.849C639.037 1341.89 640.222 1341.78 641.387 1341.55Z" fill="#E3E3FD" stroke="#BFBFFF" stroke-width="6" stroke-miterlimit="10" stroke-linecap="round"/>
<path d="M493.727 1182.52H547.591C572.637 1182.53 596.653 1192.45 614.36 1210.1C632.066 1227.75 642.013 1251.68 642.013 1276.64V1341.92" stroke="#BFBFFF" stroke-width="6" stroke-miterlimit="10" stroke-linecap="round"/>
<path d="M382.418 1355.66L497.258 1479.05C503.718 1484.08 508.944 1490.51 512.539 1497.85C516.133 1505.2 518.002 1513.26 518.002 1521.43V1651.22C518.002 1659.11 514.854 1666.69 509.251 1672.27C503.647 1677.85 496.047 1680.99 488.123 1680.99H338.745" stroke="#BFBFFF" stroke-width="6" stroke-miterlimit="10" stroke-linecap="round"/>
<path d="M509.443 885.625C509.443 885.625 563.219 877.647 595.53 948.045C623.83 1009.7 644.932 1067.19 644.932 1067.19C644.932 1067.19 688.547 1091.5 761.904 1117.51V1152.4C761.904 1152.4 650.02 1158.88 612.686 1152.4C585.238 1147.64 509.493 1046.4 504.231 977.732C498.968 909.06 509.443 885.625 509.443 885.625Z" fill="#5353DB"/>
<path d="M747.186 1152.06C743.044 1151.23 746.065 1138.39 748.496 1130.48C749.843 1126.13 753.06 1123.9 757.347 1122.02C765.878 1118.26 780.639 1116.07 788.959 1117.88C801.173 1120.55 809.02 1125.96 816.619 1134.82C818.803 1137.35 829.539 1149.53 829.539 1152.78L747.186 1152.06Z" fill="#CACAFB"/>
<path d="M457.944 857.302C411.578 862.06 322.069 918.155 336.882 1124.14C346.344 1255.85 433.131 1321.85 443.619 1317.37C454.108 1312.89 632.085 1225.48 591.315 1178.46C552.308 1133.49 565.002 1099.08 571.138 1038.19C577.274 977.29 586.497 911.018 536.928 888.084C456.605 850.941 470.34 856.025 457.944 857.302Z" fill="#5D5DE7"/>
<path d="M829.503 1680.03H702.719C702.588 1678.02 702.551 1676.1 702.581 1674.23H829.648C829.791 1676.16 829.742 1678.11 829.503 1680.03Z" fill="#383C4D"/>
<path d="M715.639 1621.08C716.09 1635.46 702.726 1644.56 702.726 1674.26H829.503C829.503 1674.26 831.344 1649.35 805.992 1643.6C780.639 1637.86 757.587 1630.18 755.28 1621.12L715.639 1621.08Z" fill="#BFBFFF"/>
<path d="M579.298 1169.74C579.298 1169.74 772.8 1157.17 819.822 1214.65C866.843 1272.13 775.566 1498.31 766.344 1622.87C766.344 1622.87 720.043 1627.66 701.241 1622.87C682.44 1618.08 666.077 1376.72 713.441 1318.29C713.441 1318.29 540.625 1361.33 470.42 1307.04C400.215 1252.74 550.081 1170.76 579.298 1169.74Z" fill="#383C4D"/>
<path d="M1116 1480.58L1015.43 1560.79C1013.98 1558.99 1012.73 1557.22 1011.57 1555.5L1111.74 1475.62C1113.35 1477.11 1114.77 1478.77 1116 1480.58Z" fill="#41465A"/>
<path d="M990.359 1505.36C999.137 1516.47 993.867 1532.15 1011.26 1555.71L1111.84 1475.5C1111.84 1475.5 1098.73 1454.57 1075.22 1466.07C1051.71 1477.58 1028.97 1486.06 1021.8 1480.3L990.359 1505.36Z" fill="#BFBFFF"/>
<path d="M438.233 1312.81C441.145 1329.03 598.536 1375.61 773.717 1260.64C773.717 1260.64 800.897 1412.29 977.927 1512.89C977.927 1512.89 1016.91 1495.62 1027.5 1472.38C1027.5 1472.38 902.619 1313.33 858.152 1184.44C839.475 1130.37 604.556 1158.66 570.214 1169.74C535.872 1180.83 425.306 1240.51 438.233 1312.81Z" fill="#41465A"/>
<path d="M444.457 910.003C484.993 923.421 542.045 1042.94 542.045 1042.94C542.045 1042.94 605.895 1049.04 702.53 1089.36C702.53 1089.36 704.757 1110.32 692.026 1127.49C692.026 1127.49 585.754 1141.21 530.478 1135.57C511.786 1133.65 440.955 1080.86 402.013 1007.8C367.191 942.446 394.938 893.618 444.457 910.003Z" fill="#6F6FFD"/>
<path d="M701.78 1090.03C701.78 1090.03 728.712 1075.86 741.326 1078.69C753.941 1081.53 769.139 1092.87 770.718 1096.02C772.298 1099.16 783.362 1114.6 783.362 1118.06C783.362 1121.52 747.608 1120.23 742.6 1120.23C737.592 1120.23 704.51 1120.76 698.126 1119.44C691.742 1118.12 701.78 1090.03 701.78 1090.03Z" fill="#E6E6FF"/>
<path d="M742.571 1120.26C747.608 1120.26 783.333 1121.52 783.333 1118.09C783.333 1114.65 772.269 1099.23 770.689 1096.04C769.11 1092.86 753.948 1081.54 741.297 1078.72C741.297 1078.72 756.903 1100.32 742.542 1120.29" fill="#CACAFB"/>
<path d="M497.636 792.017C498.444 798.284 484.418 829.805 459.393 854.314C437.432 875.804 531.891 892.436 534.365 891.892C536.84 891.348 547.868 858.252 550.131 850.498C552.395 842.745 497.636 792.017 497.636 792.017Z" fill="#E6E6FF"/>
<path d="M550.124 850.498C549.149 853.842 545.247 864.765 540.931 876.153C530.507 871.126 518.301 861.277 508.751 842.527C498.408 822.219 499.696 801.468 498.459 796.108C498.375 795.117 498.535 794.121 498.924 793.206C507.164 800.931 552.177 843.448 550.124 850.498Z" fill="#CACAFB"/>
<path d="M579.145 759.61C583.083 775.24 586.548 801.446 581.191 814.168C575.833 826.89 566.378 850.266 562.673 851.492C558.968 852.718 518.214 847.394 508.751 829.733C499.288 812.072 498.866 797.326 497.636 792.017C496.406 786.708 518.628 743.61 547.031 744.429C575.433 745.249 578.002 755.077 579.145 759.61Z" fill="#E6E6FF"/>
<path d="M596.36 751.857C588.811 754.939 594.533 763.665 580.346 764.97C566.16 766.276 562.877 748.948 562.877 748.948C562.877 748.948 561.261 755.875 554.142 758.239C554.142 758.239 557.934 750.899 552.497 747.664C547.06 744.429 543.719 748.759 543.719 748.759C543.719 748.759 538.98 746.395 536.44 752.038C533.899 757.681 538.478 761.061 544.447 761.706C544.447 761.706 544.992 770.091 531.643 771.367C518.293 772.644 515.542 764.441 515.542 764.441C515.542 764.441 513.358 762.432 512.427 768.27C511.495 774.109 516.066 783.582 506.756 791.059C503.037 794.04 500.933 795.223 499.82 795.564C504.515 799.611 502.244 811.898 491.602 816.909C477.153 823.72 466.555 818.686 465.238 808.735C464.051 799.749 469.801 803.274 468.331 796.347C468.331 796.347 458.92 803.208 452.827 793.214C447.848 785.047 456.554 779.933 456.554 779.933C456.554 779.933 450.352 771.462 455.506 765.543C461.329 758.79 470.435 763.164 469.103 758.972C467.771 754.78 464.291 744.93 469.954 739.432C475.617 733.934 484.599 736.146 485.873 733.231C487.147 730.315 485.335 725.978 479.482 728.509C479.713 726.627 480.353 724.819 481.359 723.21C482.365 721.601 483.712 720.231 485.306 719.196C490.495 715.707 498.189 716.52 503.503 718.072C504.405 713.321 506.655 707.518 512.405 704.82C521.933 700.374 528.731 705.792 532.451 710.42C532.999 708.801 534.005 707.375 535.349 706.313C536.692 705.251 538.314 704.599 540.021 704.436C551.362 702.797 560.693 705.734 562.877 714.844C565.184 724.44 582.027 702.318 589.954 721.227C591.577 725.093 587.341 728.146 592.138 731.258C594.853 733.02 598.339 727.269 595.624 725.252C599.009 726.648 601.829 729.129 603.639 732.302C605.094 734.855 608.523 746.903 596.36 751.857Z" fill="#BFBFFF"/>
<path d="M296.469 1182.52H361.979C387.025 1182.53 411.041 1192.45 428.748 1210.1C446.454 1227.75 456.401 1251.68 456.401 1276.64V1341.92" stroke="#BFBFFF" stroke-width="6" stroke-miterlimit="10" stroke-linecap="round"/>
<path d="M1025.56 1142.02H650.165C647.366 1142.02 644.681 1143.13 642.702 1145.1C640.723 1147.07 639.611 1149.75 639.611 1152.54C639.611 1155.33 640.723 1158 642.702 1159.98C644.681 1161.95 647.366 1163.06 650.165 1163.06H1025.56V1142.02Z" fill="white"/>
<path d="M1025.56 1142.02H650.165C647.366 1142.02 644.681 1143.13 642.702 1145.1C640.723 1147.07 639.611 1149.75 639.611 1152.54C639.611 1155.33 640.723 1158 642.702 1159.98C644.681 1161.95 647.366 1163.06 650.165 1163.06H1025.56" stroke="#BFBFFF" stroke-width="6" stroke-miterlimit="10"/>
<path d="M863.029 1680.27L923.633 1174.33C925.555 1163.54 940.957 1163.2 943.352 1173.89L1018.85 1677.43" stroke="#BFBFFF" stroke-width="6" stroke-miterlimit="10" stroke-linecap="round"/>
<path d="M985.322 1122.55H696.554C692.622 1122.55 689.435 1125.73 689.435 1129.65V1134C689.435 1137.92 692.622 1141.09 696.554 1141.09H985.322C989.253 1141.09 992.441 1137.92 992.441 1134V1129.65C992.441 1125.73 989.253 1122.55 985.322 1122.55Z" fill="white" stroke="#BFBFFF" stroke-width="6" stroke-miterlimit="10"/>
<path d="M973.588 1122.24H761.933C756.459 1122.24 752.783 1116.99 754.989 1112.32L814.777 985.594C818.169 978.414 825.79 973.779 834.205 973.779H1045.87C1051.34 973.779 1055.01 979.023 1052.8 983.694L993.016 1110.41C989.631 1117.59 982.01 1122.24 973.588 1122.24Z" fill="white" stroke="#BFBFFF" stroke-width="6" stroke-miterlimit="10"/>
</g>
<defs>
<linearGradient id="paint0_linear_90_2360" x1="770.401" y1="973.943" x2="1640.74" y2="973.943" gradientUnits="userSpaceOnUse">
<stop offset="0.41" stop-color="white"/>
<stop offset="1" stop-color="white" stop-opacity="0"/>
</linearGradient>
<linearGradient id="paint1_linear_90_2360" x1="914.019" y1="1152.38" x2="1241.31" y2="1152.38" gradientUnits="userSpaceOnUse">
<stop offset="0.31" stop-color="white"/>
<stop offset="1" stop-color="white" stop-opacity="0"/>
</linearGradient>
<clipPath id="clip0_90_2360">
<rect width="985" height="1400" fill="white" transform="translate(736.167 251)"/>
</clipPath>
<clipPath id="clip1_90_2360">
<rect width="837" height="980" fill="white" transform="translate(279 703.167)"/>
</clipPath>
</defs>
</svg>
