<svg width="45" height="64" viewBox="0 0 45 64" fill="none" xmlns="http://www.w3.org/2000/svg">
<path d="M43.4544 37.4029H43.4571L43.4435 37.3758C43.1181 36.5834 42.733 35.8154 42.2964 35.0716L26.34 3.02414C24.7129 -0.245515 20.035 -0.245515 18.4052 3.02414L2.44065 35.0879C2.00947 35.8208 1.62981 36.5807 1.3071 37.3623L1.28812 37.4029H1.29354C0.458299 39.4447 0 41.6434 0 43.9368C0 54.7004 10.0175 63.4276 22.3726 63.4276C34.7277 63.4276 44.7452 54.7004 44.7452 43.9368C44.7452 41.6434 44.2869 39.4447 43.4517 37.4029H43.4544Z" fill="url(#paint0_linear_143_5901)"/>
<path d="M34.9771 41.2809C33.3256 38.1329 31.5087 35.0688 29.7514 31.9722C28.306 29.4274 26.8742 26.8744 25.3935 24.3484C24.683 23.1342 23.6308 22.4175 22.1447 22.6041C20.7942 22.7745 20.0566 23.6426 19.4925 24.8271C17.8682 28.2428 16.1814 31.6288 14.4946 35.0147C12.7075 38.6008 10.8825 42.1679 9.08725 45.7513C8.41743 47.09 8.7076 47.5714 10.1855 47.6011C11.1781 47.6201 12.1733 47.6038 13.1658 47.6038V47.5957C14.2506 47.5957 15.3353 47.6444 16.4173 47.5849C18.3373 47.4767 19.4031 46.4274 19.1915 44.5343C19.0559 43.3281 18.5136 42.1382 18.001 41.0077C17.3882 39.6582 16.5312 38.4223 15.9319 37.0674C15.1862 35.3852 15.8017 33.4434 17.22 32.5131C18.66 31.5693 20.6478 31.7829 21.9142 33.1324C22.5542 33.8139 23.0993 34.6091 23.5684 35.4177C25.5779 38.8875 27.5358 42.3843 29.5317 45.8622C30.4131 47.3983 31.5738 47.8986 33.4232 47.6065C34.8469 47.3821 35.9507 46.5031 35.994 44.9075C36.0266 43.7013 35.5493 42.3789 34.9717 41.2782L34.9771 41.2809Z" fill="white"/>
<defs>
<linearGradient id="paint0_linear_143_5901" x1="19.3609" y1="2.86783" x2="44.7742" y2="70.449" gradientUnits="userSpaceOnUse">
<stop stop-color="#6A6AF4"/>
<stop offset="1" stop-color="#000091"/>
</linearGradient>
</defs>
</svg>
